<svg id="svg" version="1.1" width="400" height="386.97318007662835" viewBox="0 0 400 386.97318007662835" xmlns="http://www.w3.org/2000/svg" xmlns:xlink="http://www.w3.org/1999/xlink" ><g id="svgg"><path id="path0" d="" stroke="none" fill="#ffffff" fill-rule="evenodd"></path><path id="path1" d="M211.485 11.154 C 209.495 13.219,207.683 15.244,207.458 15.655 C 206.888 16.692,203.076 20.702,198.553 25.020 C 197.170 26.341,195.934 27.782,195.934 28.075 C 195.934 28.178,194.192 30.015,192.062 32.158 C 189.932 34.302,188.190 36.218,188.190 36.418 C 188.190 36.617,186.970 38.015,185.479 39.523 C 183.988 41.032,182.769 42.439,182.769 42.649 C 182.769 42.860,181.897 43.881,180.833 44.918 C 179.768 45.955,178.896 46.993,178.896 47.224 C 178.896 47.456,177.938 48.603,176.767 49.775 C 175.595 50.946,174.637 52.053,174.637 52.235 C 174.637 52.416,174.027 53.231,173.282 54.044 C 172.536 54.858,171.926 55.664,171.926 55.835 C 171.926 56.006,171.229 56.864,170.378 57.742 C 169.526 58.620,168.829 59.499,168.829 59.695 C 168.829 60.072,168.411 60.629,166.989 62.150 C 166.510 62.663,166.118 63.194,166.118 63.331 C 166.118 63.469,165.595 64.069,164.956 64.666 C 164.318 65.263,163.795 65.960,163.795 66.215 C 163.795 66.470,163.272 67.167,162.633 67.764 C 161.994 68.361,161.471 69.058,161.471 69.313 C 161.471 69.568,160.949 70.265,160.310 70.862 C 159.671 71.458,159.148 72.155,159.148 72.410 C 159.148 72.666,158.625 73.363,157.986 73.959 C 157.348 74.556,156.825 75.253,156.825 75.508 C 156.825 75.763,156.302 76.460,155.663 77.057 C 155.024 77.654,154.501 78.351,154.501 78.606 C 154.501 78.861,153.979 79.558,153.340 80.155 C 152.701 80.752,152.178 81.480,152.178 81.774 C 152.178 82.067,151.830 82.558,151.404 82.865 C 150.978 83.172,150.629 83.621,150.629 83.862 C 150.629 84.102,150.106 84.846,149.468 85.515 C 148.829 86.184,148.306 86.955,148.306 87.229 C 148.306 87.504,147.957 87.980,147.531 88.287 C 147.106 88.594,146.757 89.116,146.757 89.448 C 146.757 89.780,146.409 90.303,145.983 90.610 C 145.557 90.917,145.208 91.393,145.208 91.667 C 145.208 91.941,144.685 92.713,144.046 93.381 C 143.408 94.050,142.885 94.794,142.885 95.035 C 142.885 95.276,142.536 95.724,142.110 96.031 C 141.684 96.338,141.336 96.861,141.336 97.193 C 141.336 97.525,140.987 98.047,140.561 98.354 C 140.136 98.661,139.787 99.159,139.787 99.459 C 139.787 99.760,139.481 100.288,139.107 100.632 C 138.733 100.977,138.180 101.738,137.880 102.323 C 137.579 102.909,137.188 103.388,137.011 103.388 C 136.834 103.388,136.689 103.581,136.689 103.816 C 136.689 104.051,136.167 105.018,135.528 105.965 C 134.889 106.912,134.366 107.825,134.366 107.994 C 134.366 108.164,134.017 108.617,133.591 109.003 C 133.166 109.388,132.817 109.917,132.817 110.177 C 132.817 110.438,132.556 110.867,132.236 111.133 C 131.917 111.398,131.655 111.862,131.655 112.164 C 131.655 112.467,131.307 113.088,130.881 113.545 C 130.455 114.002,130.106 114.605,130.106 114.884 C 130.106 115.164,129.932 115.392,129.719 115.392 C 129.506 115.392,129.332 115.702,129.332 116.081 C 129.332 116.460,128.984 117.021,128.558 117.328 C 128.132 117.635,127.783 118.196,127.783 118.575 C 127.783 118.954,127.609 119.264,127.396 119.264 C 127.183 119.264,127.009 119.493,127.009 119.772 C 127.009 120.051,126.660 120.654,126.234 121.111 C 125.808 121.568,125.460 122.211,125.460 122.539 C 125.460 122.868,125.286 123.136,125.073 123.136 C 124.860 123.136,124.685 123.447,124.685 123.825 C 124.685 124.204,124.337 124.766,123.911 125.073 C 123.485 125.380,123.136 125.941,123.136 126.320 C 123.136 126.699,122.962 127.009,122.749 127.009 C 122.536 127.009,122.362 127.357,122.362 127.783 C 122.362 128.209,122.188 128.558,121.975 128.558 C 121.762 128.558,121.588 128.868,121.588 129.247 C 121.588 129.625,121.239 130.187,120.813 130.494 C 120.387 130.801,120.039 131.362,120.039 131.741 C 120.039 132.120,119.864 132.430,119.652 132.430 C 119.439 132.430,119.264 132.778,119.264 133.204 C 119.264 133.630,119.090 133.979,118.877 133.979 C 118.664 133.979,118.490 134.247,118.490 134.576 C 118.490 134.904,118.141 135.547,117.715 136.004 C 117.289 136.461,116.941 137.064,116.941 137.343 C 116.941 137.622,116.767 137.851,116.554 137.851 C 116.341 137.851,116.167 138.185,116.167 138.593 C 116.167 139.001,116.033 139.393,115.870 139.464 C 115.708 139.535,114.447 141.859,113.069 144.627 C 111.691 147.396,110.430 149.719,110.267 149.790 C 110.104 149.861,109.971 150.253,109.971 150.662 C 109.971 151.070,109.797 151.404,109.584 151.404 C 109.371 151.404,109.197 151.649,109.197 151.948 C 109.197 152.593,107.582 155.800,107.164 155.986 C 107.004 156.057,106.873 156.449,106.873 156.857 C 106.873 157.265,106.699 157.599,106.486 157.599 C 106.273 157.599,106.099 157.937,106.099 158.351 C 106.099 158.764,105.924 159.210,105.712 159.342 C 105.499 159.473,105.324 160.006,105.324 160.526 C 105.324 161.046,105.150 161.471,104.937 161.471 C 104.724 161.471,104.550 161.820,104.550 162.246 C 104.550 162.672,104.407 163.020,104.233 163.020 C 104.058 163.020,103.678 163.892,103.388 164.956 C 103.098 166.021,102.718 166.893,102.544 166.893 C 102.369 166.893,102.227 167.241,102.227 167.667 C 102.227 168.093,102.052 168.441,101.839 168.441 C 101.626 168.441,101.452 168.867,101.452 169.387 C 101.452 169.906,101.278 170.440,101.065 170.571 C 100.852 170.703,100.678 171.149,100.678 171.562 C 100.678 171.975,100.535 172.314,100.360 172.314 C 100.186 172.314,99.806 173.185,99.516 174.250 C 99.226 175.315,98.846 176.186,98.672 176.186 C 98.497 176.186,98.354 176.450,98.354 176.772 C 98.354 177.094,98.200 177.661,98.012 178.030 C 97.824 178.400,97.455 179.226,97.193 179.864 C 96.930 180.503,96.557 181.335,96.364 181.712 C 96.172 182.090,95.907 183.179,95.776 184.132 C 95.645 185.086,95.388 185.866,95.204 185.866 C 95.020 185.866,94.869 186.302,94.869 186.834 C 94.869 187.367,94.695 187.803,94.482 187.803 C 94.269 187.803,94.095 188.238,94.095 188.771 C 94.095 189.303,93.921 189.739,93.708 189.739 C 93.495 189.739,93.320 190.261,93.320 190.900 C 93.320 191.539,93.146 192.062,92.933 192.062 C 92.720 192.062,92.546 192.585,92.546 193.224 C 92.546 193.863,92.372 194.385,92.159 194.385 C 91.946 194.385,91.772 194.898,91.772 195.524 C 91.772 196.150,91.597 196.771,91.384 196.902 C 91.171 197.034,90.997 197.741,90.997 198.474 C 90.997 199.207,90.823 199.806,90.610 199.806 C 90.397 199.806,90.223 200.329,90.223 200.968 C 90.223 201.607,90.048 202.130,89.835 202.130 C 89.622 202.130,89.448 202.642,89.448 203.269 C 89.448 203.895,89.274 204.515,89.061 204.647 C 88.848 204.778,88.674 205.486,88.674 206.218 C 88.674 206.951,88.500 207.551,88.287 207.551 C 88.074 207.551,87.899 208.248,87.899 209.100 C 87.899 209.952,87.725 210.649,87.512 210.649 C 87.299 210.649,87.125 211.346,87.125 212.197 C 87.125 213.049,86.951 213.746,86.738 213.746 C 86.525 213.746,86.350 214.443,86.350 215.295 C 86.350 216.147,86.176 216.844,85.963 216.844 C 85.750 216.844,85.576 217.628,85.576 218.587 C 85.576 219.545,85.402 220.329,85.189 220.329 C 84.976 220.329,84.802 221.026,84.802 221.878 C 84.802 222.730,84.627 223.427,84.414 223.427 C 84.199 223.427,84.027 224.460,84.027 225.750 C 84.027 227.041,83.855 228.074,83.640 228.074 C 83.425 228.074,83.253 229.106,83.253 230.397 C 83.253 231.688,83.081 232.720,82.865 232.720 C 82.650 232.720,82.478 233.753,82.478 235.044 C 82.478 236.334,82.306 237.367,82.091 237.367 C 81.862 237.367,81.704 238.787,81.704 240.852 C 81.704 243.038,81.552 244.337,81.295 244.337 C 80.737 244.337,80.997 247.914,81.569 248.102 C 82.070 248.266,83.253 246.139,83.253 245.075 C 83.253 244.694,83.427 244.275,83.640 244.143 C 83.853 244.012,84.027 243.489,84.027 242.982 C 84.027 242.474,84.201 241.952,84.414 241.820 C 84.627 241.688,84.802 241.166,84.802 240.658 C 84.802 240.151,84.976 239.628,85.189 239.497 C 85.402 239.365,85.576 238.842,85.576 238.335 C 85.576 237.828,85.750 237.305,85.963 237.173 C 86.176 237.042,86.350 236.519,86.350 236.012 C 86.350 235.504,86.525 234.982,86.738 234.850 C 86.951 234.718,87.125 234.196,87.125 233.688 C 87.125 233.181,87.299 232.658,87.512 232.527 C 87.725 232.395,87.899 231.862,87.899 231.342 C 87.899 230.822,88.074 230.397,88.287 230.397 C 88.500 230.397,88.674 230.141,88.674 229.828 C 88.674 229.515,89.022 228.638,89.448 227.880 C 89.874 227.122,90.223 226.158,90.223 225.738 C 90.223 225.319,90.382 224.976,90.576 224.976 C 90.770 224.976,91.047 224.279,91.191 223.427 C 91.335 222.575,91.611 221.878,91.806 221.878 C 92.000 221.878,92.159 221.355,92.159 220.716 C 92.159 220.077,92.333 219.555,92.546 219.555 C 92.759 219.555,92.933 219.206,92.933 218.780 C 92.933 218.354,93.107 218.006,93.320 218.006 C 93.533 218.006,93.708 217.657,93.708 217.231 C 93.708 216.805,93.882 216.457,94.095 216.457 C 94.308 216.457,94.482 216.108,94.482 215.682 C 94.482 215.257,94.656 214.908,94.869 214.908 C 95.082 214.908,95.257 214.560,95.257 214.134 C 95.257 213.708,95.431 213.359,95.644 213.359 C 95.857 213.359,96.031 213.098,96.031 212.778 C 96.031 212.459,96.205 212.197,96.418 212.197 C 96.631 212.197,96.805 211.849,96.805 211.423 C 96.805 210.997,96.980 210.649,97.193 210.649 C 97.406 210.649,97.580 210.300,97.580 209.874 C 97.580 209.448,97.754 209.100,97.967 209.100 C 98.180 209.100,98.354 208.751,98.354 208.325 C 98.354 207.899,98.529 207.551,98.742 207.551 C 98.955 207.551,99.129 207.202,99.129 206.776 C 99.129 206.350,99.303 206.002,99.516 206.002 C 99.729 206.002,99.903 205.653,99.903 205.227 C 99.903 204.802,100.077 204.453,100.290 204.453 C 100.503 204.453,100.678 204.105,100.678 203.679 C 100.678 203.253,100.852 202.904,101.065 202.904 C 101.278 202.904,101.452 202.556,101.452 202.130 C 101.452 201.704,101.626 201.355,101.839 201.355 C 102.052 201.355,102.227 201.045,102.227 200.666 C 102.227 200.287,102.575 199.726,103.001 199.419 C 103.427 199.112,103.775 198.551,103.775 198.172 C 103.775 197.793,103.950 197.483,104.163 197.483 C 104.376 197.483,104.550 197.173,104.550 196.794 C 104.550 196.415,104.898 195.854,105.324 195.547 C 105.750 195.240,106.099 194.717,106.099 194.385 C 106.099 194.053,106.447 193.531,106.873 193.224 C 107.299 192.917,107.648 192.355,107.648 191.976 C 107.648 191.598,107.822 191.288,108.035 191.288 C 108.248 191.288,108.422 190.977,108.422 190.599 C 108.422 190.220,108.771 189.658,109.197 189.351 C 109.622 189.044,109.971 188.483,109.971 188.104 C 109.971 187.725,110.116 187.415,110.293 187.415 C 110.470 187.415,110.862 186.936,111.164 186.350 C 111.466 185.765,112.018 184.948,112.391 184.535 C 112.764 184.122,113.069 183.594,113.069 183.362 C 113.069 183.130,113.417 182.688,113.843 182.381 C 114.269 182.074,114.618 181.552,114.618 181.220 C 114.618 180.888,114.966 180.365,115.392 180.058 C 115.818 179.751,116.167 179.228,116.167 178.896 C 116.167 178.565,116.515 178.042,116.941 177.735 C 117.367 177.428,117.715 176.905,117.715 176.573 C 117.715 176.241,118.064 175.718,118.490 175.411 C 118.916 175.104,119.264 174.657,119.264 174.418 C 119.264 174.178,119.613 173.667,120.039 173.282 C 120.465 172.896,120.813 172.361,120.813 172.092 C 120.813 171.824,120.960 171.546,121.140 171.475 C 121.319 171.404,122.267 170.286,123.247 168.992 C 124.226 167.697,125.299 166.412,125.631 166.137 C 125.963 165.861,126.234 165.471,126.234 165.269 C 126.234 165.066,126.452 164.658,126.718 164.361 C 127.879 163.067,128.170 162.640,128.170 162.232 C 128.170 161.993,128.867 161.128,129.719 160.310 C 130.571 159.491,131.268 158.622,131.268 158.379 C 131.268 158.135,132.139 157.088,133.204 156.050 C 134.269 155.013,135.140 153.968,135.140 153.727 C 135.140 153.486,136.012 152.441,137.076 151.404 C 138.141 150.366,139.013 149.329,139.013 149.099 C 139.013 148.869,140.319 147.374,141.917 145.776 C 143.514 144.179,144.821 142.703,144.821 142.497 C 144.821 142.290,146.302 140.640,148.112 138.830 C 149.923 137.020,151.404 135.448,151.404 135.337 C 151.404 135.226,154.235 132.264,157.696 128.756 C 161.157 125.247,165.470 120.817,167.280 118.911 C 169.090 117.005,170.794 115.433,171.067 115.419 C 171.339 115.404,173.643 113.301,176.186 110.745 C 178.729 108.190,181.000 106.099,181.234 106.099 C 181.467 106.099,182.506 105.227,183.543 104.163 C 184.580 103.098,185.597 102.227,185.802 102.227 C 186.007 102.227,187.065 101.355,188.152 100.290 C 189.240 99.226,190.326 98.354,190.566 98.354 C 190.807 98.354,191.285 98.038,191.629 97.651 C 191.974 97.264,193.214 96.240,194.385 95.375 C 195.557 94.510,196.937 93.346,197.454 92.787 C 197.970 92.229,198.576 91.772,198.801 91.772 C 199.025 91.772,199.866 91.053,200.669 90.174 C 201.916 88.810,202.130 88.696,202.130 89.399 C 202.130 89.852,202.304 90.223,202.517 90.223 C 202.730 90.223,202.904 90.571,202.904 90.997 C 202.904 91.423,203.078 91.772,203.291 91.772 C 203.504 91.772,203.679 92.120,203.679 92.546 C 203.679 92.972,203.853 93.320,204.066 93.320 C 204.279 93.320,204.453 93.581,204.453 93.899 C 204.453 94.706,205.734 97.580,206.093 97.580 C 206.256 97.580,206.389 97.850,206.389 98.179 C 206.389 98.509,206.738 99.500,207.164 100.382 C 207.590 101.263,207.938 102.213,207.938 102.493 C 207.938 102.772,208.112 103.001,208.325 103.001 C 208.538 103.001,208.712 103.349,208.712 103.775 C 208.712 104.201,208.887 104.550,209.100 104.550 C 209.313 104.550,209.487 104.898,209.487 105.324 C 209.487 105.750,209.661 106.099,209.874 106.099 C 210.087 106.099,210.261 106.447,210.261 106.873 C 210.261 107.299,210.436 107.648,210.649 107.648 C 210.862 107.648,211.036 107.996,211.036 108.422 C 211.036 108.848,211.210 109.197,211.423 109.197 C 211.636 109.197,211.810 109.466,211.810 109.796 C 211.810 110.126,212.159 111.117,212.585 111.999 C 213.011 112.880,213.359 113.830,213.359 114.110 C 213.359 114.389,213.533 114.618,213.746 114.618 C 213.959 114.618,214.134 114.966,214.134 115.392 C 214.134 115.818,214.308 116.167,214.521 116.167 C 214.734 116.167,214.908 116.515,214.908 116.941 C 214.908 117.367,215.082 117.715,215.295 117.715 C 215.508 117.715,215.682 118.064,215.682 118.490 C 215.682 118.916,215.857 119.264,216.070 119.264 C 216.283 119.264,216.457 119.613,216.457 120.039 C 216.457 120.465,216.631 120.813,216.844 120.813 C 217.057 120.813,217.231 121.162,217.231 121.588 C 217.231 122.014,217.406 122.362,217.619 122.362 C 217.832 122.362,218.006 122.705,218.006 123.125 C 218.006 123.544,218.354 124.508,218.780 125.266 C 219.206 126.025,219.555 126.901,219.555 127.214 C 219.555 127.527,219.729 127.783,219.942 127.783 C 220.155 127.783,220.329 128.132,220.329 128.558 C 220.329 128.984,220.503 129.332,220.716 129.332 C 220.929 129.332,221.104 129.681,221.104 130.106 C 221.104 130.532,221.278 130.881,221.491 130.881 C 221.704 130.881,221.878 131.229,221.878 131.655 C 221.878 132.081,222.052 132.430,222.265 132.430 C 222.478 132.430,222.652 132.778,222.652 133.204 C 222.652 133.630,222.827 133.979,223.040 133.979 C 223.253 133.979,223.427 134.317,223.427 134.730 C 223.427 135.144,223.601 135.590,223.814 135.721 C 224.027 135.853,224.201 136.299,224.201 136.712 C 224.201 137.125,224.376 137.464,224.589 137.464 C 224.802 137.464,224.976 137.812,224.976 138.238 C 224.976 138.664,225.150 139.013,225.363 139.013 C 225.576 139.013,225.750 139.361,225.750 139.787 C 225.750 140.213,225.924 140.561,226.137 140.561 C 226.350 140.561,226.525 140.910,226.525 141.336 C 226.525 141.762,226.699 142.110,226.912 142.110 C 227.125 142.110,227.299 142.459,227.299 142.885 C 227.299 143.311,227.473 143.659,227.686 143.659 C 227.899 143.659,228.074 144.008,228.074 144.434 C 228.074 144.860,228.248 145.208,228.461 145.208 C 228.674 145.208,228.848 145.557,228.848 145.983 C 228.848 146.409,229.022 146.757,229.235 146.757 C 229.448 146.757,229.622 147.280,229.622 147.919 C 229.622 148.558,229.797 149.080,230.010 149.080 C 230.223 149.080,230.397 149.429,230.397 149.855 C 230.397 150.281,230.571 150.629,230.784 150.629 C 230.997 150.629,231.171 150.978,231.171 151.404 C 231.171 151.830,231.346 152.178,231.559 152.178 C 231.772 152.178,231.946 152.527,231.946 152.953 C 231.946 153.379,232.120 153.727,232.333 153.727 C 232.546 153.727,232.720 154.076,232.720 154.501 C 232.720 154.927,232.894 155.276,233.107 155.276 C 233.320 155.276,233.495 155.624,233.495 156.050 C 233.495 156.476,233.669 156.825,233.882 156.825 C 234.095 156.825,234.269 157.173,234.269 157.599 C 234.269 158.025,234.443 158.374,234.656 158.374 C 234.869 158.374,235.044 158.809,235.044 159.342 C 235.044 159.874,235.218 160.310,235.431 160.310 C 235.644 160.310,235.818 160.745,235.818 161.278 C 235.818 161.810,235.992 162.246,236.205 162.246 C 236.418 162.246,236.592 162.594,236.592 163.020 C 236.592 163.446,236.767 163.795,236.980 163.795 C 237.193 163.795,237.367 164.143,237.367 164.569 C 237.367 164.995,237.541 165.344,237.754 165.344 C 237.967 165.344,238.141 165.692,238.141 166.118 C 238.141 166.544,238.316 166.893,238.529 166.893 C 238.742 166.893,238.916 167.241,238.916 167.667 C 238.916 168.093,239.090 168.441,239.303 168.441 C 239.516 168.441,239.690 168.790,239.690 169.216 C 239.690 169.642,239.845 169.990,240.034 169.990 C 240.224 169.990,240.495 170.613,240.638 171.375 C 240.781 172.136,241.236 173.361,241.649 174.097 C 242.063 174.833,242.401 175.691,242.401 176.004 C 242.401 176.317,242.575 176.573,242.788 176.573 C 243.001 176.573,243.175 176.922,243.175 177.348 C 243.175 177.773,243.349 178.122,243.562 178.122 C 243.775 178.122,243.950 178.470,243.950 178.896 C 243.950 179.322,244.124 179.671,244.337 179.671 C 244.550 179.671,244.724 180.019,244.724 180.445 C 244.724 180.871,244.898 181.220,245.111 181.220 C 245.324 181.220,245.499 181.568,245.499 181.994 C 245.499 182.420,245.673 182.769,245.886 182.769 C 246.099 182.769,246.273 183.090,246.273 183.483 C 246.273 184.784,247.559 185.574,248.837 185.058 C 250.592 184.350,251.341 184.064,253.824 183.156 C 255.102 182.688,256.496 182.165,256.922 181.993 C 259.242 181.057,264.214 179.222,266.432 178.484 C 269.232 177.552,270.784 176.600,269.990 176.303 C 269.724 176.203,269.506 175.613,269.506 174.992 C 269.506 174.371,269.332 173.863,269.119 173.863 C 268.906 173.863,268.732 173.340,268.732 172.701 C 268.732 172.062,268.577 171.539,268.387 171.539 C 268.197 171.539,267.936 170.929,267.806 170.184 C 267.676 169.439,267.464 168.219,267.334 167.473 C 267.204 166.728,266.943 166.118,266.753 166.118 C 266.564 166.118,266.409 165.595,266.409 164.956 C 266.409 164.318,266.234 163.795,266.021 163.795 C 265.808 163.795,265.634 163.272,265.634 162.633 C 265.634 161.994,265.460 161.471,265.247 161.471 C 265.034 161.471,264.860 160.949,264.860 160.310 C 264.860 159.671,264.685 159.148,264.472 159.148 C 264.259 159.148,264.085 158.625,264.085 157.986 C 264.085 157.348,263.911 156.825,263.698 156.825 C 263.485 156.825,263.311 156.225,263.311 155.492 C 263.311 154.760,263.136 154.052,262.924 153.921 C 262.711 153.789,262.536 153.266,262.536 152.759 C 262.536 152.252,262.362 151.729,262.149 151.597 C 261.936 151.466,261.762 150.943,261.762 150.436 C 261.762 149.928,261.588 149.406,261.375 149.274 C 261.162 149.142,260.987 148.522,260.987 147.896 C 260.987 147.269,260.813 146.757,260.600 146.757 C 260.387 146.757,260.213 146.332,260.213 145.812 C 260.213 145.292,260.039 144.759,259.826 144.627 C 259.613 144.496,259.439 143.973,259.439 143.466 C 259.439 142.958,259.264 142.436,259.051 142.304 C 258.838 142.172,258.664 141.465,258.664 140.732 C 258.664 139.999,258.490 139.400,258.277 139.400 C 258.064 139.400,257.890 138.877,257.890 138.238 C 257.890 137.599,257.715 137.076,257.502 137.076 C 257.289 137.076,257.115 136.554,257.115 135.915 C 257.115 135.276,256.941 134.753,256.728 134.753 C 256.515 134.753,256.341 134.230,256.341 133.591 C 256.341 132.953,256.167 132.430,255.954 132.430 C 255.741 132.430,255.566 131.907,255.566 131.268 C 255.566 130.629,255.392 130.106,255.179 130.106 C 254.966 130.106,254.792 129.594,254.792 128.968 C 254.792 128.341,254.618 127.721,254.405 127.590 C 254.192 127.458,254.017 126.751,254.017 126.018 C 254.017 125.285,253.843 124.685,253.630 124.685 C 253.417 124.685,253.243 124.163,253.243 123.524 C 253.243 122.885,253.069 122.362,252.856 122.362 C 252.643 122.362,252.469 121.839,252.469 121.200 C 252.469 120.561,252.294 120.039,252.081 120.039 C 251.868 120.039,251.694 119.516,251.694 118.877 C 251.694 118.238,251.520 117.715,251.307 117.715 C 251.094 117.715,250.920 117.193,250.920 116.554 C 250.920 115.915,250.745 115.392,250.532 115.392 C 250.319 115.392,250.145 114.782,250.145 114.037 C 250.145 113.291,249.971 112.682,249.758 112.682 C 249.545 112.682,249.371 112.169,249.371 111.543 C 249.371 110.916,249.197 110.296,248.984 110.165 C 248.771 110.033,248.596 109.413,248.596 108.786 C 248.596 108.160,248.422 107.648,248.209 107.648 C 247.996 107.648,247.822 107.125,247.822 106.486 C 247.822 105.847,247.648 105.324,247.435 105.324 C 247.222 105.324,247.047 104.802,247.047 104.163 C 247.047 103.524,246.873 103.001,246.660 103.001 C 246.447 103.001,246.273 102.565,246.273 102.033 C 246.273 101.500,246.099 101.065,245.886 101.065 C 245.673 101.065,245.499 100.368,245.499 99.516 C 245.499 98.664,245.324 97.967,245.111 97.967 C 244.898 97.967,244.724 97.444,244.724 96.805 C 244.724 96.167,244.550 95.644,244.337 95.644 C 244.124 95.644,243.950 95.121,243.950 94.482 C 243.950 93.843,243.775 93.320,243.562 93.320 C 243.349 93.320,243.175 92.798,243.175 92.159 C 243.175 91.520,243.001 90.997,242.788 90.997 C 242.575 90.997,242.401 90.474,242.401 89.835 C 242.401 89.197,242.227 88.674,242.014 88.674 C 241.801 88.674,241.626 88.151,241.626 87.512 C 241.626 86.873,241.452 86.350,241.239 86.350 C 241.026 86.350,240.852 85.653,240.852 84.802 C 240.852 83.950,240.678 83.253,240.465 83.253 C 240.252 83.253,240.077 82.730,240.077 82.091 C 240.077 81.452,239.903 80.929,239.690 80.929 C 239.477 80.929,239.303 80.407,239.303 79.768 C 239.303 79.129,239.129 78.606,238.916 78.606 C 238.703 78.606,238.529 78.083,238.529 77.444 C 238.529 76.805,238.354 76.283,238.141 76.283 C 237.928 76.283,237.754 75.760,237.754 75.121 C 237.754 74.482,237.597 73.959,237.405 73.959 C 237.213 73.959,236.934 72.914,236.786 71.635 C 236.638 70.357,236.359 69.214,236.167 69.096 C 235.975 68.977,235.818 68.465,235.818 67.957 C 235.818 67.450,235.644 66.927,235.431 66.796 C 235.218 66.664,235.044 66.054,235.044 65.440 C 235.044 64.827,234.869 64.217,234.656 64.085 C 234.443 63.954,234.269 63.421,234.269 62.901 C 234.269 62.381,234.095 61.955,233.882 61.955 C 233.669 61.955,233.495 61.433,233.495 60.794 C 233.495 60.155,233.320 59.632,233.107 59.632 C 232.894 59.632,232.720 59.109,232.720 58.470 C 232.720 57.832,232.546 57.309,232.333 57.309 C 232.120 57.309,231.946 56.709,231.946 55.976 C 231.946 55.244,231.772 54.536,231.559 54.405 C 231.346 54.273,231.171 53.653,231.171 53.027 C 231.171 52.400,230.997 51.888,230.784 51.888 C 230.571 51.888,230.397 51.365,230.397 50.726 C 230.397 50.087,230.223 49.564,230.010 49.564 C 229.797 49.564,229.622 49.042,229.622 48.403 C 229.622 47.764,229.448 47.241,229.235 47.241 C 229.022 47.241,228.848 46.718,228.848 46.079 C 228.848 45.440,228.674 44.918,228.461 44.918 C 228.248 44.918,228.074 44.395,228.074 43.756 C 228.074 43.117,227.899 42.594,227.686 42.594 C 227.473 42.594,227.299 41.995,227.299 41.262 C 227.299 40.529,227.125 39.822,226.912 39.690 C 226.699 39.559,226.525 38.938,226.525 38.312 C 226.525 37.686,226.350 37.173,226.137 37.173 C 225.924 37.173,225.750 36.651,225.750 36.012 C 225.750 35.373,225.576 34.850,225.363 34.850 C 225.150 34.850,224.976 34.327,224.976 33.688 C 224.976 33.049,224.802 32.527,224.589 32.527 C 224.376 32.527,224.201 32.004,224.201 31.365 C 224.201 30.726,224.027 30.203,223.814 30.203 C 223.601 30.203,223.427 29.691,223.427 29.064 C 223.427 28.438,223.253 27.818,223.040 27.686 C 222.827 27.555,222.652 26.935,222.652 26.308 C 222.652 25.682,222.478 25.169,222.265 25.169 C 222.052 25.169,221.878 24.647,221.878 24.008 C 221.878 23.369,221.704 22.846,221.491 22.846 C 221.278 22.846,221.104 22.323,221.104 21.684 C 221.104 21.045,220.929 20.523,220.716 20.523 C 220.503 20.523,220.329 20.000,220.329 19.361 C 220.329 18.722,220.155 18.199,219.942 18.199 C 219.729 18.199,219.555 17.677,219.555 17.038 C 219.555 16.399,219.380 15.876,219.167 15.876 C 218.955 15.876,218.780 15.276,218.780 14.544 C 218.780 13.811,218.606 13.104,218.393 12.972 C 218.180 12.840,218.006 12.220,218.006 11.594 C 218.006 10.967,217.832 10.455,217.619 10.455 C 217.406 10.455,217.231 10.007,217.231 9.459 C 217.231 8.377,216.428 7.344,215.613 7.379 C 215.332 7.391,213.474 9.090,211.485 11.154 M271.709 193.739 C 270.604 194.342,269.003 195.233,268.151 195.719 C 267.299 196.205,265.557 197.171,264.279 197.866 C 257.060 201.792,253.621 204.453,255.768 204.453 C 256.083 204.453,256.341 204.802,256.341 205.227 C 256.341 205.653,256.515 206.002,256.728 206.002 C 256.941 206.002,257.115 206.350,257.115 206.776 C 257.115 207.202,257.289 207.551,257.502 207.551 C 257.715 207.551,257.890 207.899,257.890 208.325 C 257.890 208.751,258.064 209.100,258.277 209.100 C 258.490 209.100,258.664 209.535,258.664 210.068 C 258.664 210.600,258.838 211.036,259.051 211.036 C 259.264 211.036,259.439 211.262,259.439 211.539 C 259.439 212.252,260.349 214.127,260.697 214.131 C 260.857 214.132,260.987 214.482,260.987 214.908 C 260.987 215.334,261.162 215.682,261.375 215.682 C 261.588 215.682,261.762 216.031,261.762 216.457 C 261.762 216.883,261.936 217.231,262.149 217.231 C 262.362 217.231,262.536 217.580,262.536 218.006 C 262.536 218.432,262.711 218.780,262.924 218.780 C 263.136 218.780,263.311 219.129,263.311 219.555 C 263.311 219.981,263.485 220.329,263.698 220.329 C 263.911 220.329,264.085 220.852,264.085 221.491 C 264.085 222.130,264.259 222.652,264.472 222.652 C 264.685 222.652,264.860 223.001,264.860 223.427 C 264.860 223.853,265.034 224.201,265.247 224.201 C 265.460 224.201,265.634 224.550,265.634 224.976 C 265.634 225.402,265.808 225.750,266.021 225.750 C 266.234 225.750,266.409 226.099,266.409 226.525 C 266.409 226.951,266.583 227.299,266.796 227.299 C 267.009 227.299,267.183 227.648,267.183 228.074 C 267.183 228.500,267.357 228.848,267.570 228.848 C 267.783 228.848,267.957 229.197,267.957 229.622 C 267.957 230.048,268.132 230.397,268.345 230.397 C 268.558 230.397,268.732 230.745,268.732 231.171 C 268.732 231.597,268.906 231.946,269.119 231.946 C 269.332 231.946,269.506 232.294,269.506 232.720 C 269.506 233.146,269.681 233.495,269.894 233.495 C 270.106 233.495,270.281 234.017,270.281 234.656 C 270.281 235.295,270.455 235.818,270.668 235.818 C 270.881 235.818,271.055 236.167,271.055 236.592 C 271.055 237.018,271.229 237.367,271.442 237.367 C 271.655 237.367,271.830 237.715,271.830 238.141 C 271.830 238.567,272.004 238.916,272.217 238.916 C 272.430 238.916,272.604 239.264,272.604 239.690 C 272.604 240.116,272.778 240.465,272.991 240.465 C 273.204 240.465,273.379 240.813,273.379 241.239 C 273.379 241.665,273.553 242.014,273.766 242.014 C 273.979 242.014,274.153 242.362,274.153 242.788 C 274.153 243.214,274.327 243.562,274.540 243.562 C 274.753 243.562,274.927 243.911,274.927 244.337 C 274.927 244.763,275.102 245.111,275.315 245.111 C 275.528 245.111,275.702 245.547,275.702 246.079 C 275.702 246.612,275.876 247.047,276.089 247.047 C 276.302 247.047,276.476 247.386,276.476 247.799 C 276.476 248.212,276.631 248.646,276.820 248.763 C 277.008 248.880,277.278 249.587,277.418 250.335 C 277.558 251.082,277.839 251.694,278.043 251.694 C 278.246 251.694,278.412 252.043,278.412 252.469 C 278.412 252.894,278.587 253.243,278.800 253.243 C 279.013 253.243,279.187 253.591,279.187 254.017 C 279.187 254.443,279.361 254.792,279.574 254.792 C 279.787 254.792,279.961 255.140,279.961 255.566 C 279.961 255.992,280.136 256.341,280.348 256.341 C 280.561 256.341,280.736 256.689,280.736 257.115 C 280.736 257.541,280.878 257.890,281.053 257.890 C 281.227 257.890,281.607 258.761,281.897 259.826 C 282.187 260.891,282.567 261.762,282.742 261.762 C 282.916 261.762,283.059 262.110,283.059 262.536 C 283.059 262.962,283.233 263.311,283.446 263.311 C 283.659 263.311,283.833 263.659,283.833 264.085 C 283.833 264.511,284.008 264.860,284.221 264.860 C 284.434 264.860,284.608 265.208,284.608 265.634 C 284.608 266.060,284.782 266.409,284.995 266.409 C 285.208 266.409,285.382 266.757,285.382 267.183 C 285.382 267.609,285.557 267.957,285.770 267.957 C 285.983 267.957,286.157 268.306,286.157 268.732 C 286.157 269.158,286.331 269.506,286.544 269.506 C 286.757 269.506,286.931 269.776,286.931 270.106 C 286.931 270.436,287.280 271.427,287.706 272.308 C 288.132 273.190,288.480 274.140,288.480 274.419 C 288.480 274.699,288.654 274.927,288.867 274.927 C 289.080 274.927,289.255 275.276,289.255 275.702 C 289.255 276.128,289.429 276.476,289.642 276.476 C 289.855 276.476,290.029 276.825,290.029 277.251 C 290.029 277.677,290.203 278.025,290.416 278.025 C 290.629 278.025,290.803 278.374,290.803 278.800 C 290.803 279.226,290.978 279.574,291.191 279.574 C 291.404 279.574,291.578 279.923,291.578 280.348 C 291.578 280.774,291.752 281.123,291.965 281.123 C 292.178 281.123,292.352 281.471,292.352 281.897 C 292.352 282.323,292.527 282.672,292.740 282.672 C 292.953 282.672,293.127 283.003,293.127 283.407 C 293.127 283.811,293.650 285.136,294.288 286.350 C 294.927 287.565,295.450 288.802,295.450 289.100 C 295.450 289.398,295.624 289.642,295.837 289.642 C 296.050 289.642,296.225 289.903,296.225 290.223 C 296.225 290.542,296.399 290.803,296.612 290.803 C 296.825 290.803,296.999 291.152,296.999 291.578 C 296.999 292.004,297.173 292.352,297.386 292.352 C 297.599 292.352,297.773 292.701,297.773 293.127 C 297.773 293.553,297.948 293.901,298.161 293.901 C 298.374 293.901,298.548 294.327,298.548 294.846 C 298.548 295.366,298.722 295.899,298.935 296.031 C 299.148 296.163,299.322 296.609,299.322 297.022 C 299.322 297.435,299.497 297.773,299.710 297.773 C 299.923 297.773,300.097 298.122,300.097 298.548 C 300.097 298.974,300.271 299.322,300.484 299.322 C 300.697 299.322,300.871 299.671,300.871 300.097 C 300.871 300.523,301.045 300.871,301.258 300.871 C 301.471 300.871,301.646 301.220,301.646 301.646 C 301.646 302.072,301.820 302.420,302.033 302.420 C 302.246 302.420,302.420 302.769,302.420 303.195 C 302.420 303.621,302.594 303.969,302.807 303.969 C 303.020 303.969,303.195 304.318,303.195 304.743 C 303.195 305.169,303.369 305.518,303.582 305.518 C 303.795 305.518,303.969 305.866,303.969 306.292 C 303.969 306.718,304.143 307.067,304.356 307.067 C 304.569 307.067,304.743 307.590,304.743 308.228 C 304.743 308.867,304.918 309.390,305.131 309.390 C 305.344 309.390,305.518 309.739,305.518 310.165 C 305.518 310.591,305.692 310.939,305.905 310.939 C 306.118 310.939,306.292 311.288,306.292 311.713 C 306.292 312.139,306.467 312.488,306.680 312.488 C 306.893 312.488,307.067 312.836,307.067 313.262 C 307.067 313.688,307.241 314.037,307.454 314.037 C 307.667 314.037,307.841 314.385,307.841 314.811 C 307.841 315.237,308.015 315.586,308.228 315.586 C 308.441 315.586,308.616 315.934,308.616 316.360 C 308.616 316.786,308.790 317.135,309.003 317.135 C 309.216 317.135,309.390 317.483,309.390 317.909 C 309.390 318.335,309.564 318.683,309.777 318.683 C 309.990 318.683,310.165 319.022,310.165 319.435 C 310.165 319.848,310.339 320.294,310.552 320.426 C 310.765 320.558,310.939 321.091,310.939 321.610 C 310.939 322.130,311.113 322.556,311.326 322.556 C 311.539 322.556,311.713 322.904,311.713 323.330 C 311.713 323.756,311.888 324.105,312.101 324.105 C 312.314 324.105,312.488 324.453,312.488 324.879 C 312.488 325.305,312.662 325.653,312.875 325.653 C 313.088 325.653,313.262 325.914,313.262 326.232 C 313.262 327.039,314.543 329.913,314.903 329.913 C 315.065 329.913,315.198 330.261,315.198 330.687 C 315.198 331.113,315.373 331.462,315.586 331.462 C 315.799 331.462,315.973 331.732,315.973 332.061 C 315.973 332.391,316.321 333.382,316.747 334.264 C 317.173 335.145,317.522 336.095,317.522 336.375 C 317.522 336.654,317.696 336.883,317.909 336.883 C 318.122 336.883,318.296 337.231,318.296 337.657 C 318.296 338.083,318.470 338.432,318.683 338.432 C 318.896 338.432,319.071 338.780,319.071 339.206 C 319.071 339.632,319.225 339.981,319.413 339.981 C 319.601 339.981,319.846 340.329,319.957 340.755 C 320.317 342.129,321.394 341.694,321.394 340.174 C 321.394 339.429,321.220 338.819,321.007 338.819 C 320.794 338.819,320.620 338.307,320.620 337.680 C 320.620 337.054,320.445 336.434,320.232 336.302 C 320.019 336.170,319.845 335.648,319.845 335.140 C 319.845 334.633,319.671 334.110,319.458 333.979 C 319.245 333.847,319.071 333.314,319.071 332.794 C 319.071 332.274,318.896 331.849,318.683 331.849 C 318.470 331.849,318.296 331.326,318.296 330.687 C 318.296 330.048,318.122 329.526,317.909 329.526 C 317.696 329.526,317.522 329.003,317.522 328.364 C 317.522 327.725,317.348 327.202,317.135 327.202 C 316.922 327.202,316.747 326.505,316.747 325.653 C 316.747 324.802,316.573 324.105,316.360 324.105 C 316.147 324.105,315.973 323.582,315.973 322.943 C 315.973 322.304,315.799 321.781,315.586 321.781 C 315.373 321.781,315.198 321.258,315.198 320.620 C 315.198 319.981,315.024 319.458,314.811 319.458 C 314.598 319.458,314.424 318.935,314.424 318.296 C 314.424 317.657,314.250 317.135,314.037 317.135 C 313.824 317.135,313.650 316.612,313.650 315.973 C 313.650 315.334,313.475 314.811,313.262 314.811 C 313.049 314.811,312.875 314.288,312.875 313.650 C 312.875 313.011,312.701 312.488,312.488 312.488 C 312.275 312.488,312.101 311.791,312.101 310.939 C 312.101 310.087,311.926 309.390,311.713 309.390 C 311.500 309.390,311.326 308.867,311.326 308.228 C 311.326 307.590,311.152 307.067,310.939 307.067 C 310.726 307.067,310.552 306.544,310.552 305.905 C 310.552 305.266,310.378 304.743,310.165 304.743 C 309.952 304.743,309.777 304.221,309.777 303.582 C 309.777 302.943,309.623 302.420,309.435 302.420 C 309.246 302.420,308.973 301.465,308.827 300.297 C 308.681 299.129,308.399 298.073,308.201 297.950 C 308.003 297.828,307.841 297.226,307.841 296.612 C 307.841 295.998,307.667 295.388,307.454 295.257 C 307.241 295.125,307.067 294.505,307.067 293.878 C 307.067 293.252,306.893 292.740,306.680 292.740 C 306.467 292.740,306.292 292.217,306.292 291.578 C 306.292 290.939,306.118 290.416,305.905 290.416 C 305.692 290.416,305.518 289.894,305.518 289.255 C 305.518 288.616,305.344 288.093,305.131 288.093 C 304.918 288.093,304.743 287.570,304.743 286.931 C 304.743 286.292,304.569 285.770,304.356 285.770 C 304.143 285.770,303.969 285.390,303.969 284.926 C 303.969 284.035,303.331 281.774,302.760 280.644 C 302.573 280.274,302.420 279.534,302.420 278.998 C 302.420 278.463,302.246 278.025,302.033 278.025 C 301.820 278.025,301.646 277.502,301.646 276.864 C 301.646 276.225,301.471 275.702,301.258 275.702 C 301.045 275.702,300.871 275.179,300.871 274.540 C 300.871 273.901,300.697 273.379,300.484 273.379 C 300.271 273.379,300.097 272.856,300.097 272.217 C 300.097 271.578,299.923 271.055,299.710 271.055 C 299.497 271.055,299.322 270.456,299.322 269.723 C 299.322 268.990,299.148 268.283,298.935 268.151 C 298.722 268.019,298.548 267.497,298.548 266.989 C 298.548 266.482,298.374 265.959,298.161 265.828 C 297.948 265.696,297.773 265.173,297.773 264.666 C 297.773 264.159,297.599 263.636,297.386 263.504 C 297.173 263.373,296.999 262.850,296.999 262.343 C 296.999 261.835,296.825 261.313,296.612 261.181 C 296.399 261.049,296.225 260.527,296.225 260.019 C 296.225 259.512,296.050 258.989,295.837 258.858 C 295.624 258.726,295.450 258.106,295.450 257.480 C 295.450 256.853,295.276 256.341,295.063 256.341 C 294.850 256.341,294.676 255.731,294.676 254.985 C 294.676 254.240,294.501 253.630,294.288 253.630 C 294.076 253.630,293.901 253.107,293.901 252.469 C 293.901 251.830,293.727 251.307,293.514 251.307 C 293.301 251.307,293.127 250.784,293.127 250.145 C 293.127 249.506,292.953 248.984,292.740 248.984 C 292.527 248.984,292.352 248.461,292.352 247.822 C 292.352 247.183,292.178 246.660,291.965 246.660 C 291.752 246.660,291.578 246.137,291.578 245.499 C 291.578 244.860,291.404 244.337,291.191 244.337 C 290.978 244.337,290.803 243.814,290.803 243.175 C 290.803 242.536,290.629 242.014,290.416 242.014 C 290.203 242.014,290.029 241.317,290.029 240.465 C 290.029 239.613,289.855 238.916,289.642 238.916 C 289.429 238.916,289.255 238.393,289.255 237.754 C 289.255 237.115,289.080 236.592,288.867 236.592 C 288.654 236.592,288.480 236.070,288.480 235.431 C 288.480 234.792,288.306 234.269,288.093 234.269 C 287.880 234.269,287.706 233.746,287.706 233.107 C 287.706 232.469,287.531 231.946,287.318 231.946 C 287.106 231.946,286.931 231.423,286.931 230.784 C 286.931 230.145,286.757 229.622,286.544 229.622 C 286.331 229.622,286.157 229.100,286.157 228.461 C 286.157 227.822,285.983 227.299,285.770 227.299 C 285.557 227.299,285.382 226.700,285.382 225.967 C 285.382 225.234,285.208 224.527,284.995 224.395 C 284.782 224.263,284.608 223.741,284.608 223.233 C 284.608 222.726,284.434 222.203,284.221 222.072 C 284.008 221.940,283.833 221.320,283.833 220.694 C 283.833 220.067,283.659 219.555,283.446 219.555 C 283.233 219.555,283.059 219.119,283.059 218.587 C 283.059 218.054,282.885 217.619,282.672 217.619 C 282.459 217.619,282.285 217.096,282.285 216.457 C 282.285 215.818,282.110 215.295,281.897 215.295 C 281.684 215.295,281.510 214.696,281.510 213.963 C 281.510 213.230,281.336 212.523,281.123 212.391 C 280.910 212.259,280.736 211.639,280.736 211.013 C 280.736 210.387,280.561 209.874,280.348 209.874 C 280.136 209.874,279.961 209.351,279.961 208.712 C 279.961 208.074,279.787 207.551,279.574 207.551 C 279.361 207.551,279.187 207.028,279.187 206.389 C 279.187 205.750,279.013 205.227,278.800 205.227 C 278.587 205.227,278.412 204.705,278.412 204.066 C 278.412 203.427,278.238 202.904,278.025 202.904 C 277.812 202.904,277.638 202.381,277.638 201.742 C 277.638 201.104,277.464 200.581,277.251 200.581 C 277.038 200.581,276.864 199.981,276.864 199.248 C 276.864 198.516,276.689 197.808,276.476 197.677 C 276.263 197.545,276.089 196.925,276.089 196.299 C 276.089 195.672,275.915 195.160,275.702 195.160 C 275.138 195.160,275.227 192.932,275.799 192.732 C 276.065 192.640,275.706 192.581,275.000 192.603 C 274.295 192.625,272.814 193.136,271.709 193.739 M57.309 378.703 C 57.309 378.916,57.570 379.090,57.890 379.090 C 58.209 379.090,58.470 378.916,58.470 378.703 C 58.470 378.490,58.209 378.316,57.890 378.316 C 57.570 378.316,57.309 378.490,57.309 378.703 " stroke="none" fill="#000bdb" fill-rule="evenodd"></path><path id="path2" d="M390.319 142.464 C 391.082 142.606,391.632 142.922,391.578 143.188 C 391.457 143.778,392.118 143.808,392.476 143.229 C 392.864 142.602,391.876 142.116,390.319 142.167 L 388.964 142.212 390.319 142.464 M388.771 144.046 C 388.771 144.259,389.022 144.434,389.329 144.434 C 389.635 144.434,389.994 144.259,390.126 144.046 C 390.257 143.833,390.006 143.659,389.568 143.659 C 389.129 143.659,388.771 143.833,388.771 144.046 M385.673 144.821 C 385.673 145.034,386.098 145.208,386.618 145.208 C 387.138 145.208,387.671 145.034,387.803 144.821 C 387.942 144.595,387.548 144.434,386.857 144.434 C 386.206 144.434,385.673 144.608,385.673 144.821 M382.575 145.551 C 382.575 145.739,381.589 146.017,380.383 146.167 C 379.177 146.318,377.914 146.582,377.576 146.755 C 377.237 146.928,376.176 147.289,375.218 147.558 C 373.290 148.099,339.554 159.283,334.947 160.908 C 333.349 161.472,330.561 162.452,328.751 163.085 C 324.429 164.599,322.450 165.326,317.328 167.280 C 314.985 168.174,311.762 169.394,310.165 169.992 C 302.852 172.727,291.191 177.429,280.216 182.068 C 275.778 183.944,271.917 185.479,271.637 185.479 C 271.357 185.479,270.458 185.807,269.640 186.208 C 268.821 186.609,267.323 187.306,266.312 187.757 C 261.486 189.909,260.642 190.296,258.513 191.336 C 257.258 191.948,255.995 192.449,255.706 192.449 C 255.416 192.449,255.179 192.623,255.179 192.836 C 255.179 193.049,254.974 193.224,254.724 193.224 C 254.473 193.224,251.990 194.339,249.206 195.702 C 246.421 197.066,242.401 199.003,240.271 200.008 C 235.323 202.343,227.222 206.384,226.718 206.769 C 226.505 206.932,223.543 208.506,220.136 210.268 C 216.728 212.030,213.766 213.598,213.553 213.752 C 213.340 213.905,211.597 214.862,209.681 215.877 C 204.718 218.505,202.693 219.636,196.059 223.485 C 192.826 225.360,189.603 227.223,188.895 227.626 C 188.188 228.028,186.159 229.252,184.386 230.345 C 182.613 231.438,181.106 232.333,181.037 232.333 C 180.597 232.333,168.087 240.375,161.278 245.037 C 143.486 257.216,134.555 263.832,124.494 272.289 C 124.067 272.648,122.482 273.955,120.973 275.193 C 101.169 291.440,82.080 311.523,71.636 327.097 C 70.123 329.354,69.700 329.590,69.700 328.176 C 69.700 327.647,69.528 326.470,69.318 325.562 C 69.109 324.654,68.688 322.604,68.384 321.007 C 67.723 317.536,66.421 312.642,65.448 309.971 C 63.365 304.254,62.376 301.667,61.669 300.097 C 61.239 299.138,60.240 296.873,59.451 295.063 C 56.215 287.641,46.440 271.700,39.806 263.027 C 28.194 247.845,8.906 227.448,8.906 230.350 C 8.906 230.538,9.603 231.409,10.455 232.287 C 11.307 233.165,12.004 234.105,12.004 234.378 C 12.004 234.650,12.352 235.124,12.778 235.431 C 13.204 235.738,13.553 236.179,13.553 236.411 C 13.553 236.644,13.858 237.171,14.230 237.584 C 14.603 237.997,15.155 238.814,15.457 239.400 C 15.760 239.985,16.152 240.465,16.329 240.465 C 16.506 240.465,16.651 240.726,16.651 241.045 C 16.651 241.365,16.825 241.626,17.038 241.626 C 17.251 241.626,17.425 241.888,17.425 242.207 C 17.425 242.527,17.599 242.788,17.812 242.788 C 18.025 242.788,18.199 243.098,18.199 243.477 C 18.199 243.856,18.548 244.417,18.974 244.724 C 19.400 245.031,19.748 245.592,19.748 245.971 C 19.748 246.350,19.923 246.660,20.136 246.660 C 20.348 246.660,20.523 246.922,20.523 247.241 C 20.523 247.561,20.677 247.822,20.865 247.822 C 21.053 247.822,21.672 248.737,22.241 249.855 C 22.810 250.973,23.583 252.410,23.958 253.049 C 24.334 253.688,25.239 255.344,25.970 256.728 C 26.701 258.112,27.430 259.303,27.590 259.374 C 27.749 259.445,27.880 259.823,27.880 260.213 C 27.880 260.603,28.011 260.981,28.170 261.052 C 28.568 261.229,30.978 266.011,30.978 266.624 C 30.978 266.896,31.109 267.177,31.270 267.247 C 31.561 267.376,33.401 271.025,34.654 273.959 C 35.018 274.811,35.908 276.730,36.632 278.222 C 37.356 279.715,37.948 281.240,37.948 281.610 C 37.948 281.981,38.122 282.285,38.335 282.285 C 38.548 282.285,38.722 282.720,38.722 283.253 C 38.722 283.785,38.896 284.221,39.109 284.221 C 39.322 284.221,39.497 284.656,39.497 285.189 C 39.497 285.721,39.671 286.157,39.884 286.157 C 40.097 286.157,40.271 286.495,40.271 286.908 C 40.271 287.322,40.445 287.768,40.658 287.899 C 40.871 288.031,41.045 288.479,41.045 288.895 C 41.045 289.312,41.220 289.998,41.433 290.422 C 41.646 290.845,41.994 291.537,42.207 291.960 C 42.420 292.383,42.594 293.167,42.594 293.702 C 42.594 294.238,42.769 294.676,42.982 294.676 C 43.195 294.676,43.369 295.101,43.369 295.621 C 43.369 296.141,43.543 296.674,43.756 296.805 C 43.969 296.937,44.143 297.460,44.143 297.967 C 44.143 298.474,44.318 298.997,44.530 299.129 C 44.743 299.260,44.918 299.783,44.918 300.290 C 44.918 300.798,45.092 301.320,45.305 301.452 C 45.518 301.584,45.692 302.106,45.692 302.614 C 45.692 303.121,45.866 303.644,46.079 303.775 C 46.292 303.907,46.467 304.527,46.467 305.154 C 46.467 305.780,46.641 306.292,46.854 306.292 C 47.067 306.292,47.241 306.805,47.241 307.431 C 47.241 308.058,47.415 308.678,47.628 308.809 C 47.841 308.941,48.015 309.551,48.015 310.165 C 48.015 310.778,48.190 311.388,48.403 311.520 C 48.616 311.651,48.790 312.261,48.790 312.875 C 48.790 313.489,48.964 314.099,49.177 314.230 C 49.390 314.362,49.564 314.972,49.564 315.586 C 49.564 316.199,49.739 316.809,49.952 316.941 C 50.165 317.073,50.339 317.770,50.339 318.490 C 50.339 319.210,50.513 319.907,50.726 320.039 C 50.939 320.170,51.113 321.052,51.113 321.998 C 51.113 322.943,51.288 323.717,51.500 323.717 C 51.713 323.717,51.888 324.414,51.888 325.266 C 51.888 326.118,52.062 326.815,52.275 326.815 C 52.488 326.815,52.662 327.512,52.662 328.364 C 52.662 329.216,52.836 329.913,53.049 329.913 C 53.264 329.913,53.437 330.945,53.437 332.236 C 53.437 333.527,53.609 334.560,53.824 334.560 C 54.042 334.560,54.211 335.649,54.211 337.054 C 54.211 338.425,54.385 339.655,54.598 339.787 C 54.811 339.919,54.985 341.062,54.985 342.327 C 54.985 343.602,55.158 344.627,55.373 344.627 C 55.600 344.627,55.760 345.975,55.760 347.896 C 55.760 349.694,55.934 351.272,56.147 351.404 C 56.361 351.536,56.534 353.272,56.534 355.276 C 56.534 357.280,56.708 359.016,56.922 359.148 C 57.163 359.297,57.309 362.960,57.309 368.852 L 57.309 378.316 58.277 378.316 C 58.906 378.316,59.245 378.099,59.245 377.696 C 59.245 377.356,59.768 376.589,60.407 375.992 C 61.045 375.395,61.568 374.667,61.568 374.373 C 61.568 374.080,61.917 373.589,62.343 373.282 C 62.769 372.975,63.117 372.483,63.117 372.190 C 63.117 371.896,63.640 371.168,64.279 370.571 C 64.918 369.974,65.440 369.283,65.440 369.036 C 65.440 368.788,65.963 368.145,66.602 367.608 C 67.241 367.070,67.764 366.473,67.764 366.282 C 67.764 365.952,68.530 364.910,69.603 363.779 C 69.869 363.499,70.087 363.145,70.087 362.993 C 70.087 362.841,70.610 362.217,71.249 361.607 C 71.888 360.996,72.410 360.324,72.410 360.113 C 72.410 359.902,72.585 359.729,72.798 359.729 C 73.011 359.729,73.185 359.499,73.185 359.218 C 73.185 358.937,73.577 358.352,74.056 357.918 C 75.087 356.984,76.283 355.549,76.283 355.246 C 76.283 355.127,76.891 354.389,77.635 353.604 C 78.378 352.820,78.988 352.060,78.990 351.916 C 78.992 351.772,80.126 350.476,81.510 349.036 C 82.894 347.597,84.027 346.272,84.027 346.094 C 84.027 345.915,84.768 345.015,85.673 344.094 C 86.578 343.173,87.580 342.027,87.899 341.547 C 88.710 340.329,90.887 337.817,92.836 335.852 C 93.742 334.939,94.482 334.004,94.482 333.774 C 94.482 333.264,99.025 328.751,99.538 328.751 C 99.739 328.751,99.903 328.563,99.903 328.334 C 99.903 328.104,100.600 327.246,101.452 326.428 C 102.304 325.609,103.001 324.842,103.001 324.723 C 103.001 324.556,111.465 315.914,123.139 304.163 C 124.368 302.925,127.402 299.794,128.624 298.502 C 129.406 297.675,130.218 296.999,130.428 296.999 C 130.638 296.999,132.293 295.561,134.106 293.804 C 137.162 290.842,138.463 289.652,144.372 284.414 C 145.574 283.349,146.840 282.173,147.186 281.801 C 147.533 281.428,147.970 281.122,148.158 281.121 C 148.346 281.120,149.648 280.031,151.051 278.701 C 152.454 277.371,154.284 275.723,155.117 275.038 C 155.950 274.354,157.241 273.265,157.986 272.617 C 158.732 271.970,160.017 270.875,160.843 270.183 C 161.669 269.491,162.571 268.708,162.848 268.441 C 163.125 268.175,163.451 267.957,163.572 267.957 C 163.692 267.957,164.681 267.086,165.768 266.021 C 166.856 264.956,167.916 264.085,168.124 264.085 C 168.332 264.085,169.172 263.388,169.990 262.536 C 170.809 261.684,171.680 260.987,171.926 260.987 C 172.173 260.987,173.044 260.290,173.863 259.439 C 174.681 258.587,175.556 257.890,175.807 257.890 C 176.057 257.890,176.751 257.367,177.348 256.728 C 177.944 256.089,178.624 255.566,178.858 255.566 C 179.092 255.566,179.284 255.392,179.284 255.179 C 179.284 254.966,179.475 254.792,179.709 254.792 C 179.943 254.792,180.623 254.269,181.220 253.630 C 181.817 252.991,182.504 252.469,182.747 252.469 C 182.989 252.469,183.573 252.102,184.043 251.654 C 184.514 251.205,185.334 250.556,185.866 250.210 C 186.399 249.864,187.919 248.750,189.243 247.733 C 190.568 246.717,191.767 245.886,191.907 245.886 C 192.047 245.886,192.798 245.319,193.577 244.627 C 195.067 243.302,196.150 242.483,198.064 241.234 C 198.703 240.817,199.561 240.256,199.970 239.986 C 200.379 239.717,201.233 239.017,201.867 238.432 C 202.501 237.846,203.216 237.367,203.457 237.367 C 203.698 237.367,204.146 237.018,204.453 236.592 C 204.760 236.167,205.191 235.818,205.410 235.818 C 205.629 235.817,206.315 235.382,206.933 234.849 C 207.552 234.317,208.198 233.882,208.368 233.882 C 208.538 233.882,209.113 233.446,209.645 232.914 C 210.178 232.381,210.844 231.946,211.126 231.946 C 211.408 231.946,211.890 231.597,212.197 231.171 C 212.504 230.745,212.935 230.396,213.154 230.396 C 213.373 230.395,214.163 229.873,214.908 229.235 C 215.653 228.597,216.481 228.075,216.747 228.074 C 217.014 228.074,217.231 227.899,217.231 227.686 C 217.231 227.473,217.541 227.299,217.920 227.299 C 218.299 227.299,218.860 226.951,219.167 226.525 C 219.474 226.099,219.916 225.750,220.148 225.750 C 220.380 225.750,220.908 225.445,221.321 225.073 C 221.734 224.700,222.551 224.148,223.136 223.846 C 223.722 223.543,224.201 223.151,224.201 222.974 C 224.201 222.797,224.486 222.652,224.834 222.652 C 225.181 222.652,225.748 222.334,226.092 221.946 C 226.436 221.557,227.285 220.991,227.977 220.689 C 228.669 220.387,229.235 220.036,229.235 219.908 C 229.235 219.781,230.019 219.273,230.978 218.780 C 231.936 218.287,232.720 217.737,232.720 217.558 C 232.720 217.378,232.982 217.231,233.301 217.231 C 233.621 217.231,233.882 217.085,233.882 216.905 C 233.882 216.726,234.710 216.162,235.721 215.653 C 236.733 215.144,237.842 214.420,238.187 214.043 C 238.531 213.667,239.076 213.359,239.398 213.359 C 239.719 213.359,240.173 213.130,240.405 212.850 C 240.637 212.570,241.704 211.931,242.776 211.429 C 243.847 210.927,244.724 210.372,244.724 210.195 C 244.724 210.019,244.928 209.874,245.178 209.874 C 245.427 209.874,245.906 209.635,246.243 209.343 C 246.579 209.051,247.899 208.244,249.177 207.551 C 250.455 206.857,251.762 206.080,252.081 205.824 C 252.401 205.567,253.305 205.064,254.090 204.705 C 254.876 204.346,255.618 203.739,255.739 203.356 C 255.955 202.676,259.228 200.590,264.666 197.666 C 266.157 196.865,267.551 196.084,267.764 195.932 C 269.085 194.988,274.087 192.512,274.281 192.706 C 274.590 193.015,276.864 192.066,276.864 191.628 C 276.864 191.441,277.212 191.288,277.638 191.288 C 278.064 191.288,278.412 191.113,278.412 190.900 C 278.412 190.687,278.761 190.513,279.187 190.513 C 279.613 190.513,279.961 190.339,279.961 190.126 C 279.961 189.913,280.310 189.739,280.736 189.739 C 281.162 189.739,281.510 189.564,281.510 189.351 C 281.510 189.138,281.859 188.964,282.285 188.964 C 282.711 188.964,283.059 188.790,283.059 188.577 C 283.059 188.364,283.408 188.190,283.833 188.190 C 284.259 188.190,284.608 188.015,284.608 187.803 C 284.608 187.590,284.942 187.415,285.350 187.415 C 285.758 187.415,286.150 187.285,286.221 187.125 C 286.407 186.707,289.614 185.092,290.259 185.092 C 290.559 185.092,290.803 184.932,290.803 184.736 C 290.803 184.541,291.675 183.987,292.740 183.506 C 293.804 183.024,294.676 182.487,294.676 182.312 C 294.676 182.137,295.024 181.994,295.450 181.994 C 295.876 181.994,296.225 181.820,296.225 181.607 C 296.225 181.394,296.563 181.220,296.976 181.220 C 297.390 181.220,297.835 181.045,297.967 180.833 C 298.099 180.620,298.545 180.445,298.958 180.445 C 299.371 180.445,299.710 180.271,299.710 180.058 C 299.710 179.845,300.058 179.671,300.484 179.671 C 300.910 179.671,301.258 179.497,301.258 179.284 C 301.258 179.071,301.694 178.896,302.227 178.896 C 302.759 178.896,303.195 178.755,303.195 178.581 C 303.195 178.408,303.804 178.027,304.550 177.735 C 305.295 177.442,305.905 177.061,305.905 176.888 C 305.905 176.715,306.132 176.573,306.409 176.573 C 307.121 176.573,308.996 175.662,309.000 175.315 C 309.002 175.155,309.351 175.024,309.777 175.024 C 310.203 175.024,310.552 174.873,310.552 174.688 C 310.552 174.503,311.162 174.252,311.909 174.131 C 312.655 174.010,314.315 173.377,315.599 172.725 C 316.882 172.073,318.188 171.539,318.501 171.539 C 318.815 171.539,319.071 171.384,319.071 171.194 C 319.071 171.004,319.511 170.738,320.049 170.603 C 320.588 170.468,322.025 169.905,323.244 169.353 C 324.463 168.800,326.070 168.090,326.815 167.775 C 327.561 167.460,329.032 166.784,330.086 166.273 C 331.139 165.762,332.315 165.344,332.699 165.344 C 333.084 165.344,333.398 165.169,333.398 164.956 C 333.398 164.743,333.833 164.569,334.366 164.569 C 334.898 164.569,335.334 164.395,335.334 164.182 C 335.334 163.969,335.598 163.795,335.920 163.795 C 336.242 163.795,336.896 163.593,337.372 163.347 C 339.236 162.383,339.610 162.246,340.363 162.246 C 340.791 162.246,341.142 162.072,341.142 161.859 C 341.142 161.646,341.491 161.471,341.917 161.471 C 342.343 161.471,342.691 161.297,342.691 161.084 C 342.691 160.871,343.214 160.697,343.853 160.697 C 344.492 160.697,345.015 160.523,345.015 160.310 C 345.015 160.097,345.363 159.923,345.789 159.923 C 346.215 159.923,346.563 159.748,346.563 159.535 C 346.563 159.322,347.086 159.148,347.725 159.148 C 348.364 159.148,348.887 159.005,348.887 158.831 C 348.887 158.656,349.758 158.276,350.823 157.986 C 351.888 157.696,352.759 157.316,352.759 157.142 C 352.759 156.968,353.184 156.825,353.704 156.825 C 354.224 156.825,354.757 156.651,354.889 156.438 C 355.020 156.225,355.466 156.050,355.880 156.050 C 356.293 156.050,356.631 155.876,356.631 155.663 C 356.631 155.450,357.154 155.276,357.793 155.276 C 358.432 155.276,358.955 155.102,358.955 154.889 C 358.955 154.676,359.380 154.501,359.900 154.501 C 360.420 154.501,360.953 154.327,361.084 154.114 C 361.216 153.901,361.739 153.727,362.246 153.727 C 362.753 153.727,363.276 153.553,363.408 153.340 C 363.539 153.127,363.985 152.953,364.398 152.953 C 364.812 152.953,365.150 152.778,365.150 152.565 C 365.150 152.352,365.575 152.178,366.095 152.178 C 366.615 152.178,367.148 152.004,367.280 151.791 C 367.411 151.578,367.779 151.404,368.096 151.404 C 368.413 151.404,369.394 151.055,370.275 150.629 C 371.157 150.203,372.184 149.855,372.557 149.855 C 372.931 149.855,373.344 149.681,373.475 149.468 C 373.607 149.255,374.130 149.080,374.637 149.080 C 375.144 149.080,375.667 148.906,375.799 148.693 C 375.930 148.480,376.453 148.306,376.960 148.306 C 377.468 148.306,377.990 148.132,378.122 147.919 C 378.254 147.706,378.776 147.531,379.284 147.531 C 379.791 147.531,380.314 147.357,380.445 147.144 C 380.577 146.931,381.110 146.757,381.630 146.757 C 382.150 146.757,382.575 146.583,382.575 146.370 C 382.575 146.157,383.098 145.983,383.737 145.983 C 384.376 145.983,384.898 145.808,384.898 145.595 C 384.898 145.382,384.376 145.208,383.737 145.208 C 383.098 145.208,382.575 145.362,382.575 145.551 M269.293 177.314 C 269.091 177.508,267.605 178.106,265.992 178.643 C 263.449 179.490,259.471 180.959,256.922 181.992 C 256.496 182.165,255.102 182.688,253.824 183.156 C 248.776 185.002,247.692 185.479,247.950 185.737 C 248.076 185.863,249.580 185.420,251.292 184.754 C 253.004 184.088,255.842 183.004,257.599 182.345 C 259.356 181.685,261.142 181.000,261.568 180.821 C 261.994 180.643,263.040 180.275,263.892 180.005 C 264.743 179.734,265.606 179.374,265.808 179.205 C 266.011 179.035,266.463 178.896,266.814 178.896 C 267.681 178.896,269.894 177.763,269.894 177.319 C 269.894 176.868,269.758 176.867,269.293 177.314 " stroke="none" fill="#7066ff" fill-rule="evenodd"></path><path id="path3" d="M387.415 142.754 C 386.776 142.841,385.905 143.069,385.479 143.262 C 385.053 143.454,384.095 143.688,383.349 143.781 C 382.604 143.875,380.984 144.234,379.749 144.580 C 378.514 144.925,377.087 145.208,376.577 145.208 C 376.068 145.208,375.543 145.382,375.411 145.595 C 375.280 145.808,374.583 145.983,373.863 145.983 C 373.142 145.983,372.445 146.157,372.314 146.370 C 372.182 146.583,371.485 146.757,370.765 146.757 C 370.044 146.757,369.347 146.931,369.216 147.144 C 369.084 147.357,368.387 147.531,367.667 147.531 C 366.947 147.531,366.250 147.706,366.118 147.919 C 365.986 148.132,365.289 148.306,364.569 148.306 C 363.849 148.306,363.152 148.480,363.020 148.693 C 362.889 148.906,362.192 149.080,361.471 149.080 C 360.751 149.080,360.054 149.255,359.923 149.468 C 359.791 149.681,359.094 149.855,358.374 149.855 C 357.653 149.855,356.956 150.029,356.825 150.242 C 356.693 150.455,355.986 150.629,355.253 150.629 C 354.520 150.629,353.921 150.803,353.921 151.016 C 353.921 151.229,353.224 151.404,352.372 151.404 C 351.520 151.404,350.823 151.578,350.823 151.791 C 350.823 152.004,350.223 152.178,349.490 152.178 C 348.758 152.178,348.050 152.352,347.919 152.565 C 347.787 152.778,347.177 152.953,346.563 152.953 C 345.950 152.953,345.340 153.127,345.208 153.340 C 345.077 153.553,344.369 153.727,343.636 153.727 C 342.904 153.727,342.304 153.901,342.304 154.114 C 342.304 154.327,341.704 154.501,340.972 154.501 C 340.239 154.501,339.531 154.676,339.400 154.889 C 339.268 155.102,338.571 155.276,337.851 155.276 C 337.131 155.276,336.434 155.450,336.302 155.663 C 336.170 155.876,335.561 156.050,334.947 156.050 C 334.333 156.050,333.723 156.225,333.591 156.438 C 333.460 156.651,332.850 156.825,332.236 156.825 C 331.622 156.825,331.013 156.999,330.881 157.212 C 330.749 157.425,330.129 157.599,329.503 157.599 C 328.876 157.599,328.364 157.773,328.364 157.986 C 328.364 158.199,327.764 158.374,327.032 158.374 C 326.299 158.374,325.591 158.548,325.460 158.761 C 325.328 158.974,324.708 159.148,324.082 159.148 C 323.455 159.148,322.943 159.322,322.943 159.535 C 322.943 159.748,322.333 159.923,321.588 159.923 C 320.842 159.923,320.232 160.097,320.232 160.310 C 320.232 160.523,319.710 160.697,319.071 160.697 C 318.432 160.697,317.909 160.871,317.909 161.084 C 317.909 161.297,317.212 161.471,316.360 161.471 C 315.508 161.471,314.811 161.646,314.811 161.859 C 314.811 162.072,314.288 162.246,313.650 162.246 C 313.011 162.246,312.488 162.420,312.488 162.633 C 312.488 162.846,311.965 163.020,311.326 163.020 C 310.687 163.020,310.165 163.195,310.165 163.408 C 310.165 163.621,309.642 163.795,309.003 163.795 C 308.364 163.795,307.841 163.969,307.841 164.182 C 307.841 164.395,307.462 164.569,306.997 164.569 C 306.106 164.569,303.846 165.208,302.716 165.778 C 302.346 165.965,301.605 166.118,301.070 166.118 C 300.535 166.118,300.097 166.292,300.097 166.505 C 300.097 166.718,299.574 166.893,298.935 166.893 C 298.296 166.893,297.773 167.067,297.773 167.280 C 297.773 167.493,297.251 167.667,296.612 167.667 C 295.973 167.667,295.450 167.841,295.450 168.054 C 295.450 168.267,294.927 168.441,294.288 168.441 C 293.650 168.441,293.127 168.616,293.127 168.829 C 293.127 169.042,292.604 169.216,291.965 169.216 C 291.326 169.216,290.803 169.390,290.803 169.603 C 290.803 169.816,290.281 169.990,289.642 169.990 C 289.003 169.990,288.480 170.165,288.480 170.378 C 288.480 170.591,288.055 170.765,287.535 170.765 C 287.015 170.765,286.482 170.939,286.350 171.152 C 286.219 171.365,285.696 171.539,285.189 171.539 C 284.681 171.539,284.159 171.713,284.027 171.926 C 283.895 172.139,283.362 172.314,282.843 172.314 C 282.323 172.314,281.897 172.488,281.897 172.701 C 281.897 172.914,281.375 173.088,280.736 173.088 C 280.097 173.088,279.574 173.262,279.574 173.475 C 279.574 173.688,279.051 173.863,278.412 173.863 C 277.773 173.863,277.251 174.037,277.251 174.250 C 277.251 174.463,276.728 174.637,276.089 174.637 C 275.450 174.637,274.927 174.811,274.927 175.024 C 274.927 175.237,274.405 175.411,273.766 175.411 C 273.127 175.411,272.604 175.586,272.604 175.799 C 272.604 176.012,272.288 176.186,271.903 176.186 C 271.517 176.186,270.782 176.578,270.269 177.057 C 269.115 178.135,267.691 178.896,266.829 178.896 C 266.470 178.896,266.011 179.035,265.808 179.205 C 265.606 179.374,264.743 179.734,263.892 180.005 C 263.040 180.275,261.994 180.643,261.568 180.821 C 261.142 181.000,259.356 181.685,257.599 182.345 C 255.842 183.004,253.025 184.080,251.339 184.735 C 248.772 185.733,248.134 185.853,247.418 185.470 C 246.836 185.159,246.301 185.132,245.741 185.388 C 244.937 185.754,243.880 186.197,241.723 187.073 C 241.137 187.311,240.397 187.630,240.077 187.783 C 239.758 187.935,238.669 188.301,237.657 188.596 C 236.646 188.892,235.818 189.269,235.818 189.436 C 235.818 189.602,235.393 189.739,234.873 189.739 C 234.353 189.739,233.820 189.913,233.688 190.126 C 233.557 190.339,233.111 190.513,232.697 190.513 C 232.284 190.513,231.946 190.656,231.946 190.830 C 231.946 191.005,231.075 191.385,230.010 191.675 C 228.945 191.965,228.074 192.345,228.074 192.519 C 228.074 192.694,227.735 192.836,227.322 192.836 C 226.909 192.836,226.463 193.011,226.331 193.224 C 226.199 193.437,225.666 193.611,225.147 193.611 C 224.627 193.611,224.201 193.785,224.201 193.998 C 224.201 194.211,223.853 194.385,223.427 194.385 C 223.001 194.385,222.652 194.560,222.652 194.773 C 222.652 194.985,222.227 195.160,221.707 195.160 C 221.187 195.160,220.654 195.334,220.523 195.547 C 220.391 195.760,219.945 195.934,219.532 195.934 C 219.118 195.934,218.780 196.108,218.780 196.321 C 218.780 196.534,218.432 196.709,218.006 196.709 C 217.580 196.709,217.231 196.883,217.231 197.096 C 217.231 197.309,216.901 197.483,216.496 197.483 C 216.092 197.483,214.767 198.006,213.553 198.645 C 212.338 199.284,211.014 199.806,210.609 199.806 C 210.205 199.806,209.874 199.981,209.874 200.194 C 209.874 200.407,209.526 200.581,209.100 200.581 C 208.674 200.581,208.325 200.755,208.325 200.968 C 208.325 201.181,207.977 201.355,207.551 201.355 C 207.125 201.355,206.776 201.530,206.776 201.742 C 206.776 201.955,206.428 202.130,206.002 202.130 C 205.576 202.130,205.227 202.304,205.227 202.517 C 205.227 202.730,204.879 202.904,204.453 202.904 C 204.027 202.904,203.679 203.078,203.679 203.291 C 203.679 203.504,203.415 203.679,203.093 203.679 C 202.770 203.679,202.160 203.853,201.737 204.066 C 201.314 204.279,200.622 204.627,200.199 204.840 C 199.776 205.053,199.166 205.227,198.844 205.227 C 198.521 205.227,198.258 205.402,198.258 205.615 C 198.258 205.828,197.909 206.002,197.483 206.002 C 197.057 206.002,196.709 206.176,196.709 206.389 C 196.709 206.602,196.360 206.776,195.934 206.776 C 195.508 206.776,195.160 206.951,195.160 207.164 C 195.160 207.377,194.811 207.551,194.385 207.551 C 193.959 207.551,193.611 207.725,193.611 207.938 C 193.611 208.151,193.262 208.325,192.836 208.325 C 192.410 208.325,192.062 208.500,192.062 208.712 C 192.062 208.925,191.713 209.100,191.288 209.100 C 190.862 209.100,190.513 209.274,190.513 209.487 C 190.513 209.700,190.165 209.874,189.739 209.874 C 189.313 209.874,188.964 210.048,188.964 210.261 C 188.964 210.474,188.616 210.649,188.190 210.649 C 187.764 210.649,187.415 210.823,187.415 211.036 C 187.415 211.249,187.067 211.423,186.641 211.423 C 186.215 211.423,185.866 211.597,185.866 211.810 C 185.866 212.023,185.518 212.197,185.092 212.197 C 184.666 212.197,184.318 212.372,184.318 212.585 C 184.318 212.798,183.969 212.972,183.543 212.972 C 183.117 212.972,182.769 213.146,182.769 213.359 C 182.769 213.572,182.420 213.746,181.994 213.746 C 181.568 213.746,181.220 213.921,181.220 214.134 C 181.220 214.347,180.871 214.521,180.445 214.521 C 180.019 214.521,179.671 214.695,179.671 214.908 C 179.671 215.121,179.322 215.295,178.896 215.295 C 178.470 215.295,178.122 215.470,178.122 215.682 C 178.122 215.895,177.773 216.070,177.348 216.070 C 176.922 216.070,176.573 216.244,176.573 216.457 C 176.573 216.670,176.225 216.844,175.799 216.844 C 175.373 216.844,175.024 217.018,175.024 217.231 C 175.024 217.444,174.719 217.630,174.347 217.644 C 173.974 217.658,172.362 218.434,170.765 219.368 C 169.167 220.301,166.815 221.618,165.537 222.294 C 164.259 222.970,163.156 223.676,163.085 223.863 C 163.014 224.049,162.622 224.201,162.214 224.201 C 161.805 224.201,161.469 224.332,161.465 224.492 C 161.462 224.652,160.591 225.209,159.529 225.730 C 158.468 226.251,157.599 226.817,157.599 226.988 C 157.599 227.159,157.251 227.299,156.825 227.299 C 156.399 227.299,156.050 227.473,156.050 227.686 C 156.050 227.899,155.822 228.074,155.543 228.074 C 155.263 228.074,154.661 228.422,154.203 228.848 C 153.746 229.274,153.104 229.622,152.775 229.622 C 152.447 229.622,152.178 229.797,152.178 230.010 C 152.178 230.223,151.950 230.397,151.670 230.397 C 151.391 230.397,150.825 230.702,150.412 231.075 C 149.999 231.448,148.833 232.172,147.822 232.685 C 146.810 233.197,145.983 233.763,145.983 233.943 C 145.983 234.122,145.796 234.269,145.568 234.269 C 145.340 234.269,144.394 234.792,143.466 235.431 C 142.537 236.070,141.591 236.592,141.363 236.592 C 141.135 236.592,140.949 236.767,140.949 236.980 C 140.949 237.193,140.687 237.367,140.368 237.367 C 140.048 237.367,139.787 237.541,139.787 237.754 C 139.787 237.967,139.559 238.141,139.279 238.141 C 139.000 238.141,138.397 238.490,137.940 238.916 C 137.483 239.342,136.927 239.690,136.705 239.690 C 136.484 239.690,136.302 239.835,136.302 240.012 C 136.302 240.189,135.823 240.581,135.237 240.883 C 134.652 241.185,133.835 241.738,133.422 242.110 C 133.009 242.483,132.481 242.788,132.249 242.788 C 132.016 242.788,131.575 243.136,131.268 243.562 C 130.961 243.988,130.513 244.337,130.272 244.337 C 130.031 244.337,129.287 244.860,128.619 245.499 C 127.950 246.137,127.178 246.660,126.904 246.660 C 126.630 246.660,126.154 247.009,125.847 247.435 C 125.540 247.861,125.049 248.209,124.755 248.209 C 124.462 248.209,123.733 248.732,123.136 249.371 C 122.540 250.010,121.843 250.532,121.588 250.532 C 121.333 250.532,120.636 251.055,120.039 251.694 C 119.442 252.333,118.762 252.856,118.528 252.856 C 118.294 252.856,118.103 253.030,118.103 253.243 C 118.103 253.456,117.911 253.630,117.677 253.630 C 117.443 253.630,116.763 254.153,116.167 254.792 C 115.570 255.431,114.817 255.954,114.495 255.954 C 114.172 255.954,113.850 256.088,113.779 256.251 C 113.708 256.415,112.697 257.330,111.532 258.284 C 110.368 259.239,108.974 260.420,108.435 260.910 C 107.895 261.400,106.496 262.620,105.324 263.621 C 102.413 266.108,84.027 284.590,84.027 285.029 C 84.027 285.223,83.330 286.100,82.478 286.978 C 81.626 287.855,80.929 288.733,80.929 288.927 C 80.929 289.121,80.316 289.894,79.567 290.643 C 78.002 292.208,77.832 292.131,76.278 289.158 C 75.749 288.146,75.185 287.318,75.025 287.318 C 74.865 287.318,74.734 287.008,74.734 286.630 C 74.734 286.251,74.385 285.689,73.959 285.382 C 73.533 285.075,73.185 284.514,73.185 284.135 C 73.185 283.756,73.011 283.446,72.798 283.446 C 72.585 283.446,72.410 283.218,72.410 282.938 C 72.410 282.659,72.062 282.057,71.636 281.599 C 71.210 281.142,70.862 280.585,70.862 280.361 C 70.862 280.137,70.339 279.407,69.700 278.739 C 69.061 278.070,68.538 277.326,68.538 277.085 C 68.538 276.844,68.190 276.396,67.764 276.089 C 67.338 275.782,66.989 275.334,66.989 275.093 C 66.989 274.852,66.467 274.108,65.828 273.439 C 65.189 272.771,64.666 272.037,64.666 271.808 C 64.666 271.579,63.795 270.543,62.730 269.506 C 61.665 268.469,60.794 267.524,60.794 267.406 C 60.794 266.688,50.111 255.954,49.396 255.954 C 49.279 255.954,47.776 254.560,46.056 252.856 C 44.336 251.152,42.767 249.758,42.568 249.758 C 42.370 249.758,41.490 249.061,40.612 248.209 C 39.734 247.357,38.846 246.660,38.637 246.660 C 38.429 246.660,37.770 246.137,37.173 245.499 C 36.576 244.860,35.810 244.337,35.469 244.337 C 35.129 244.337,34.850 244.192,34.850 244.015 C 34.850 243.838,34.371 243.447,33.785 243.146 C 33.199 242.846,32.438 242.294,32.094 241.919 C 31.750 241.545,31.263 241.239,31.013 241.239 C 30.763 241.239,30.184 240.891,29.727 240.465 C 29.270 240.039,28.667 239.690,28.388 239.690 C 28.108 239.690,27.880 239.516,27.880 239.303 C 27.880 239.090,27.651 238.916,27.372 238.916 C 27.093 238.916,26.490 238.567,26.033 238.141 C 25.576 237.715,24.933 237.367,24.605 237.367 C 24.276 237.367,24.008 237.193,24.008 236.980 C 24.008 236.767,23.779 236.592,23.500 236.592 C 23.221 236.592,22.618 236.244,22.161 235.818 C 21.704 235.392,21.061 235.044,20.733 235.044 C 20.404 235.044,20.136 234.869,20.136 234.656 C 20.136 234.443,19.787 234.269,19.361 234.269 C 18.935 234.269,18.587 234.122,18.587 233.943 C 18.587 233.763,17.759 233.199,16.747 232.690 C 15.736 232.180,14.821 231.673,14.714 231.564 C 14.282 231.119,11.119 229.622,10.612 229.622 C 10.313 229.622,10.068 229.448,10.068 229.235 C 10.068 229.022,9.806 228.848,9.487 228.848 C 9.167 228.848,8.906 229.109,8.906 229.429 C 8.906 229.748,9.211 230.011,9.584 230.012 C 10.830 230.017,25.072 244.983,33.717 255.373 C 43.604 267.254,54.969 284.784,59.451 295.063 C 60.240 296.873,61.239 299.138,61.669 300.097 C 62.376 301.667,63.365 304.254,65.448 309.971 C 66.421 312.642,67.723 317.536,68.384 321.007 C 68.688 322.604,69.109 324.654,69.318 325.562 C 69.528 326.470,69.700 327.647,69.700 328.176 C 69.700 329.590,70.123 329.354,71.636 327.097 C 82.080 311.523,101.169 291.440,120.973 275.193 C 122.482 273.955,124.067 272.648,124.494 272.289 C 134.555 263.832,143.486 257.216,161.278 245.037 C 168.087 240.375,180.597 232.333,181.037 232.333 C 181.106 232.333,182.613 231.438,184.386 230.345 C 186.159 229.252,188.188 228.028,188.895 227.626 C 189.603 227.223,192.826 225.360,196.059 223.485 C 202.693 219.636,204.718 218.505,209.681 215.877 C 211.597 214.862,213.340 213.905,213.553 213.752 C 213.766 213.598,216.728 212.030,220.136 210.268 C 223.543 208.506,226.505 206.932,226.718 206.769 C 227.222 206.384,235.323 202.343,240.271 200.008 C 242.401 199.003,246.421 197.066,249.206 195.702 C 251.990 194.339,254.473 193.224,254.724 193.224 C 254.974 193.224,255.179 193.049,255.179 192.836 C 255.179 192.623,255.416 192.449,255.706 192.449 C 255.995 192.449,257.258 191.948,258.513 191.336 C 260.642 190.296,261.486 189.909,266.312 187.757 C 267.323 187.306,268.821 186.609,269.640 186.208 C 270.458 185.807,271.357 185.479,271.637 185.479 C 271.917 185.479,275.778 183.944,280.216 182.068 C 291.191 177.429,302.852 172.727,310.165 169.992 C 311.762 169.394,314.985 168.174,317.328 167.280 C 322.450 165.326,324.429 164.599,328.751 163.085 C 330.561 162.452,333.349 161.472,334.947 160.908 C 339.554 159.283,373.290 148.099,375.218 147.558 C 376.176 147.289,377.237 146.928,377.576 146.755 C 377.914 146.582,379.177 146.318,380.383 146.167 C 381.589 146.017,382.575 145.739,382.575 145.551 C 382.575 145.362,383.272 145.208,384.124 145.208 C 384.976 145.208,385.673 145.034,385.673 144.821 C 385.673 144.608,386.370 144.434,387.222 144.434 C 388.074 144.434,388.771 144.270,388.771 144.070 C 388.771 143.870,389.424 143.652,390.223 143.586 C 391.021 143.520,391.675 143.291,391.675 143.078 C 391.675 142.667,389.353 142.491,387.415 142.754 M7.446 228.921 C 7.685 229.639,8.519 229.758,8.519 229.074 C 8.519 228.737,8.243 228.461,7.906 228.461 C 7.569 228.461,7.362 228.668,7.446 228.921 " stroke="none" fill="#8ac8ff" fill-rule="evenodd"></path><path id="path4" d="" stroke="none" fill="#00ffff" fill-rule="evenodd"></path></g></svg>